<svg xmlns="http://www.w3.org/2000/svg" width="104.604" height="54.977" viewBox="0 0 104.604 54.977">
  <g id="g3" transform="translate(0 0)">
    <path id="path5" d="M82.4,1.214l-7.553,30.74L67.261,1.214H45.037V12.569C42.371,2.634,32.956.141,24.232,0,13.6-.136,2.458,4.468,2.048,18.523H16.755c0-4.242,3.254-6.669,6.923-6.612,4.5-.035,6.577,1.887,6.681,4.881-.155,2.6-1.691,4.406-6.647,4.406H18.766V31.4h4.492c2.545,0,6.1,1.385,6.238,5.018.171,4.328-2.841,6.232-6.544,6.267-6.612-.243-7.685-5.326-7.685-9.693H0c.069,2.943-.658,22.12,23.263,21.982,11.458.1,19.455-4.708,21.809-11.354V53.8H60.13V20.635L68.265,53.8H81.42l8.169-33.129V53.832H104.6V1.214ZM45.078,31.885c-1.869-3.877-4.507-5.576-6-6.11,3.116-1.385,4.75-3.264,6-7.01Z" transform="translate(0 0)" fill="red"/>
  </g>
</svg>
