<?xml version="1.0" encoding="UTF-8" standalone="no"?>
<svg
   xmlns:dc="http://purl.org/dc/elements/1.1/"
   xmlns:cc="http://creativecommons.org/ns#"
   xmlns:rdf="http://www.w3.org/1999/02/22-rdf-syntax-ns#"
   xmlns:svg="http://www.w3.org/2000/svg"
   xmlns="http://www.w3.org/2000/svg"
   id="svg27"
   version="1.1"
   fill="none"
   viewBox="0 0 250 100"
   height="100"
   width="250">
  <metadata
     id="metadata31">
    <rdf:RDF>
      <cc:Work
         rdf:about="">
        <dc:format>image/svg+xml</dc:format>
        <dc:type
           rdf:resource="http://purl.org/dc/dcmitype/StillImage" />
      </cc:Work>
    </rdf:RDF>
  </metadata>
  <defs
     id="defs4">
    <style
       id="style2"
       type="text/css">
  	@font-face {
        font-family: PT Sans Narrow;
        font-weight: 700;
        src: url('https://tnbt.dev/fonts/PTSansNarrow-Bold.ttf');
    }
  	@font-face {
	    font-family: Work Sans;
        font-weight: 400;
	    src: url('https://tnbt.dev/fonts/WorkSans-Regular.ttf');
    }
	</style>
  </defs>
  <path
     id="path6"
     fill="#EFEFEF"
     d="M85.7423 10.88H96.0143C101.092 10.9013 103.63 12.8 103.63 16.576C103.63 17.8133 103.268 18.8587 102.542 19.712C101.817 20.5653 100.75 21.0987 99.3423 21.312V21.344C100.921 21.5573 102.116 22.112 102.926 23.008C103.758 23.8827 104.174 24.9813 104.174 26.304C104.174 28.1387 103.524 29.5467 102.222 30.528C100.921 31.5093 99.0116 32 96.4943 32H85.7423V10.88ZM95.0223 19.52C97.0063 19.52 97.9983 18.752 97.9983 17.216C97.9983 15.68 97.0063 14.912 95.0223 14.912H91.0543V19.52H95.0223ZM95.5663 28.128C96.5476 28.128 97.2836 27.9253 97.7743 27.52C98.2863 27.1147 98.5423 26.528 98.5423 25.76C98.5423 25.0133 98.2863 24.448 97.7743 24.064C97.2836 23.6587 96.5476 23.456 95.5663 23.456H91.0543V28.128H95.5663ZM124.481 27.744V32H107.617V10.88H124.065V15.136H113.121V19.424H121.825V23.424H113.121V27.744H124.481ZM136.061 10.56C138.066 10.56 139.773 10.8587 141.181 11.456C142.61 12.0533 143.933 13.024 145.149 14.368L142.045 17.952C141.341 16.8853 140.509 16.1067 139.549 15.616C138.61 15.104 137.479 14.848 136.157 14.848C135.047 14.848 134.194 15.04 133.597 15.424C132.999 15.808 132.701 16.32 132.701 16.96C132.701 17.4933 133.01 17.9307 133.629 18.272C134.269 18.592 135.346 18.8907 136.861 19.168C139.783 19.7013 141.863 20.48 143.101 21.504C144.359 22.528 144.989 23.968 144.989 25.824C144.989 27.168 144.605 28.3307 143.837 29.312C143.069 30.2933 142.002 31.04 140.637 31.552C139.293 32.064 137.767 32.32 136.061 32.32C133.671 32.32 131.73 32.032 130.237 31.456C128.743 30.8587 127.453 29.952 126.365 28.736L129.181 24.896C130.013 26.048 130.951 26.8587 131.997 27.328C133.042 27.7973 134.301 28.032 135.773 28.032C136.946 28.032 137.821 27.872 138.397 27.552C138.994 27.2107 139.293 26.7307 139.293 26.112C139.293 25.6213 138.973 25.2267 138.333 24.928C137.714 24.608 136.669 24.3093 135.197 24.032C133.383 23.6693 131.879 23.2427 130.685 22.752C129.511 22.24 128.594 21.5573 127.933 20.704C127.293 19.8507 126.973 18.7627 126.973 17.44C126.973 16.1173 127.325 14.9333 128.029 13.888C128.754 12.8427 129.799 12.032 131.165 11.456C132.551 10.8587 134.183 10.56 136.061 10.56ZM165.784 15.136H158.904V32H153.4V15.136H146.488V10.88H165.784V15.136Z" />
  <path
     id="path8"
     fill="#EFEFEF"
     d="M122.132 37.63C122.828 37.63 123.433 37.7803 123.947 38.081C124.467 38.3817 124.867 38.8143 125.146 39.379C125.424 39.9437 125.564 40.6073 125.564 41.37C125.564 42.1327 125.424 42.7963 125.146 43.361C124.867 43.9257 124.467 44.3583 123.947 44.659C123.433 44.9597 122.828 45.11 122.132 45.11C121.435 45.11 120.83 44.9597 120.317 44.659C119.803 44.3583 119.407 43.9257 119.129 43.361C118.85 42.7963 118.711 42.1327 118.711 41.37C118.711 40.6073 118.85 39.9437 119.129 39.379C119.407 38.8143 119.803 38.3817 120.317 38.081C120.83 37.7803 121.435 37.63 122.132 37.63ZM122.132 38.653C121.45 38.653 120.914 38.8913 120.526 39.368C120.137 39.8447 119.943 40.512 119.943 41.37C119.943 42.228 120.137 42.8953 120.526 43.372C120.914 43.8487 121.45 44.087 122.132 44.087C122.821 44.087 123.36 43.8487 123.749 43.372C124.137 42.8953 124.332 42.228 124.332 41.37C124.332 40.512 124.137 39.8447 123.749 39.368C123.36 38.8913 122.821 38.653 122.132 38.653ZM128.491 38.752V40.853H131.681V41.876H128.491V45H127.314V37.74H132.561V38.752H128.491Z" />
  <g
     style="dominant-baseline:middle;text-anchor:middle"
     dominant-baseline="middle"
     id="textCity">
    <g
       id="text10"
       style="font-weight:700;font-size:22px;font-family:'PT Sans Narrow';fill:#EFEFEF"
       aria-label="Fort Worth">
      <path
         id="path33"
         style="font-weight:700;font-size:22px;font-family:'PT Sans Narrow';fill:#EFEFEF"
         d="m 83.816172,49.099996 h 7.7 v 2.552 h -4.928 v 4.004 h 4.532 v 2.552 h -4.532 v 6.292 h -2.772 z" />
      <path
         id="path35"
         style="font-weight:700;font-size:22px;font-family:'PT Sans Narrow';fill:#EFEFEF"
         d="m 92.614453,58.999996 q 0,-2.926 1.144,-4.356 1.144,-1.43 3.19,-1.43 2.2,0 3.277997,1.452 1.078,1.452 1.078,4.334 0,2.948 -1.144,4.378 -1.143997,1.408 -3.211997,1.408 -4.334,0 -4.334,-5.786 z m 2.706,0 q 0,1.65 0.374,2.552 0.374,0.902 1.254,0.902 0.836,0 1.232,-0.77 0.418,-0.792 0.418,-2.684 0,-1.694 -0.374,-2.574 -0.374,-0.88 -1.276,-0.88 -0.77,0 -1.21,0.792 -0.418,0.77 -0.418,2.662 z" />
      <path
         id="path37"
         style="font-weight:700;font-size:22px;font-family:'PT Sans Narrow';fill:#EFEFEF"
         d="m 107.99933,56.095996 q -0.528,-0.198 -0.968,-0.198 -0.594,0 -1.034,0.33 -0.418,0.33 -0.572,0.924 v 7.348 h -2.618 v -11 h 2.002 l 0.308,1.32 h 0.088 q 0.286,-0.726 0.814,-1.122 0.55,-0.418 1.254,-0.418 0.528,0 1.034,0.22 z" />
      <path
         id="path39"
         style="font-weight:700;font-size:22px;font-family:'PT Sans Narrow';fill:#EFEFEF"
         d="m 108.95323,53.499996 h 1.21 v -2.068 l 2.618,-0.814 v 2.882 h 2.134 v 2.332 h -2.134 v 4.796 q 0,0.946 0.176,1.342 0.198,0.396 0.682,0.396 0.33,0 0.594,-0.066 0.264,-0.066 0.572,-0.198 l 0.33,2.09 q -0.484,0.242 -1.122,0.396 -0.638,0.176 -1.342,0.176 -1.254,0 -1.892,-0.726 -0.616,-0.726 -0.616,-2.442 v -5.764 h -1.21 z" />
      <path
         id="path41"
         style="font-weight:700;font-size:22px;font-family:'PT Sans Narrow';fill:#EFEFEF"
         d="m 123.81664,57.569996 0.22,2.772 h 0.088 l 0.242,-2.816 2.068,-8.426 h 1.936 l 2.002,8.47 0.242,2.772 h 0.088 l 0.242,-2.816 1.364,-8.426 h 2.816 l -3.454,15.51 h -1.958 l -2.156,-8.492 -0.286,-2.398 h -0.11 l -0.264,2.42 -2.156,8.47 h -2.046 l -3.432,-15.51 h 3.058 z" />
      <path
         id="path43"
         style="font-weight:700;font-size:22px;font-family:'PT Sans Narrow';fill:#EFEFEF"
         d="m 134.63789,58.999996 q 0,-2.926 1.144,-4.356 1.144,-1.43 3.19,-1.43 2.2,0 3.278,1.452 1.078,1.452 1.078,4.334 0,2.948 -1.144,4.378 -1.144,1.408 -3.212,1.408 -4.334,0 -4.334,-5.786 z m 2.706,0 q 0,1.65 0.374,2.552 0.374,0.902 1.254,0.902 0.836,0 1.232,-0.77 0.418,-0.792 0.418,-2.684 0,-1.694 -0.374,-2.574 -0.374,-0.88 -1.276,-0.88 -0.77,0 -1.21,0.792 -0.418,0.77 -0.418,2.662 z" />
      <path
         id="path45"
         style="font-weight:700;font-size:22px;font-family:'PT Sans Narrow';fill:#EFEFEF"
         d="m 150.02277,56.095996 q -0.528,-0.198 -0.968,-0.198 -0.594,0 -1.034,0.33 -0.418,0.33 -0.572,0.924 v 7.348 h -2.618 v -11 h 2.002 l 0.308,1.32 h 0.088 q 0.286,-0.726 0.814,-1.122 0.55,-0.418 1.254,-0.418 0.528,0 1.034,0.22 z" />
      <path
         id="path47"
         style="font-weight:700;font-size:22px;font-family:'PT Sans Narrow';fill:#EFEFEF"
         d="m 150.97667,53.499996 h 1.21 v -2.068 l 2.618,-0.814 v 2.882 h 2.134 v 2.332 h -2.134 v 4.796 q 0,0.946 0.176,1.342 0.198,0.396 0.682,0.396 0.33,0 0.594,-0.066 0.264,-0.066 0.572,-0.198 l 0.33,2.09 q -0.484,0.242 -1.122,0.396 -0.638,0.176 -1.342,0.176 -1.254,0 -1.892,-0.726 -0.616,-0.726 -0.616,-2.442 v -5.764 h -1.21 z" />
      <path
         id="path49"
         style="font-weight:700;font-size:22px;font-family:'PT Sans Narrow';fill:#EFEFEF"
         d="m 163.69302,64.499996 v -6.644 q 0,-1.188 -0.286,-1.716 -0.264,-0.528 -0.99,-0.528 -0.528,0 -0.968,0.374 -0.44,0.374 -0.594,0.946 v 7.568 h -2.618 v -15.4 h 2.618 v 5.39 h 0.066 q 0.44,-0.572 1.056,-0.924 0.638,-0.352 1.584,-0.352 0.682,0 1.188,0.198 0.506,0.198 0.858,0.66 0.352,0.462 0.528,1.254 0.176,0.77 0.176,1.958 v 7.216 z" />
    </g>
  </g>
  <g
     id="logo">
    <path
       style="clip-rule:evenodd;fill:#3db9d8;fill-rule:evenodd"
       id="path13"
       d="m 86.3763,82.7458 c 0.6334,0 1.1668,-0.3064 1.5002,-0.7491 0.2334,-0.3065 0.3667,-0.6811 0.3667,-1.0897 0,-0.4087 -0.1333,-0.8173 -0.3667,-1.1238 C 87.6431,79.4427 87.3098,79.2043 86.943,79.1022 86.7763,79.0341 86.5763,79 86.3763,79 h -2.5338 v 5.6869 h 1.0669 v -1.9411 z m 0.6001,-2.4177 c 0.1333,0.1362 0.2,0.3405 0.2,0.5448 0.0272,0.1668 -0.0344,0.3108 -0.0942,0.4507 -0.0135,0.0315 -0.0269,0.0629 -0.0392,0.0942 -0.1666,0.2043 -0.4334,0.3405 -0.6334,0.3405 h -1.5002 v -1.7367 h 1.4669 c 0.2333,0 0.4667,0.1362 0.6001,0.3065 z m 6.301,4.3588 -1.0335,-2.1454 c 0.2667,-0.1021 0.5001,-0.3065 0.6334,-0.5108 0.2334,-0.3405 0.3668,-0.7151 0.3668,-1.1237 0,-0.4087 -0.1334,-0.8173 -0.3668,-1.1238 C 92.644,79.4427 92.3106,79.2043 91.9438,79.1022 91.7772,79.0341 91.5771,79 91.3771,79 h -2.5338 v 5.6869 h 1.0669 v -1.9411 h 1.2335 l 0.9335,1.9411 z m -1.867,-2.9286 h -1.5002 -0.0334 v -1.7367 h 1.5003 c 0.2334,0 0.4667,0.1362 0.6334,0.3405 0.1334,0.1362 0.2001,0.3406 0.2001,0.5449 0,0.1702 -0.0667,0.3746 -0.1667,0.5108 -0.1667,0.2043 -0.4334,0.3405 -0.6335,0.3405 z m 3.6006,-1.6686 v 1.2259 h 2.1337 v 1.0897 H 95.011 v 1.2259 h 2.6004 v 1.0897 H 93.9775 V 79 h 3.6339 v 1.0897 z m 4.5341,1.2259 v -1.2259 h 2.3669 V 79 h -3.4004 v 5.7209 h 1.0335 v -2.3156 h 1.8999 v -1.0897 z m 4.0339,-1.2259 v 1.2259 h 2.134 v 1.0897 h -2.134 v 1.2259 h 2.6 v 1.0897 h -3.667 V 79 h 3.634 v 1.0897 z m 7.901,4.5972 -1.033,-2.1454 c 0.267,-0.1021 0.467,-0.3065 0.633,-0.5108 0.234,-0.3405 0.367,-0.7151 0.367,-1.1237 0,-0.4087 -0.133,-0.8173 -0.367,-1.1238 -0.233,-0.3405 -0.567,-0.5789 -0.933,-0.681 C 109.98,79.0341 109.78,79 109.58,79 h -2.534 v 5.6869 h 1.067 v -1.9411 h 1.234 l 0.933,1.9411 z m -1.867,-2.9286 h -1.5 -0.033 v -1.7367 h 1.5 c 0.233,0 0.467,0.1362 0.633,0.3405 0.134,0.1362 0.2,0.3406 0.2,0.5449 0,0.1702 -0.066,0.3746 -0.166,0.5108 -0.167,0.2043 -0.434,0.3405 -0.634,0.3405 z m 5.935,0.7832 1.033,2.1454 h -1.2 l -0.9,-1.9411 h -1.234 v 1.9411 H 112.18 V 79 h 2.534 c 0.2,0 0.4,0.0341 0.567,0.1022 0.367,0.1021 0.7,0.3405 0.933,0.681 0.234,0.3065 0.367,0.7151 0.367,1.1238 0,0.4086 -0.133,0.7832 -0.367,1.1237 -0.166,0.2043 -0.4,0.4087 -0.666,0.5108 z m -2.334,-0.7832 h 1.5 c 0.2,0 0.467,-0.1362 0.634,-0.3405 0.1,-0.1362 0.166,-0.3406 0.166,-0.5108 0,-0.2043 -0.066,-0.4087 -0.2,-0.5449 -0.166,-0.2043 -0.4,-0.3405 -0.6,-0.3405 h -1.5 z m 5.134,-0.4427 v -1.2259 h 2.601 V 79 h -3.634 v 5.7209 h 3.634 v -1.0897 h -2.601 v -1.2259 h 2.134 v -1.0897 z m 8.035,0.5449 c 0,0.4767 -0.1,0.9535 -0.334,1.3961 -0.466,0.8854 -1.4,1.4643 -2.333,1.4643 h -1.901 V 79 h 1.901 c 0.933,0 1.867,0.5449 2.333,1.4643 0.234,0.4427 0.334,0.9194 0.334,1.3962 z m -1.067,0 c 0,-0.3406 -0.067,-0.647 -0.2,-0.8854 -0.267,-0.5789 -0.834,-0.9535 -1.434,-0.9535 h -0.8 v 3.6777 h 0.8 c 0.567,0 1.2,-0.3745 1.467,-0.9194 0.1,-0.3065 0.167,-0.613 0.167,-0.9194 z m -26.3124,8.3704 c 0.2253,-0.263 0.3541,-0.5261 0.4506,-0.822 l -1.0622,-0.263 c -0.0322,0.1644 -0.1288,0.3616 -0.2253,0.4932 -0.2575,0.3616 -0.7082,0.5589 -1.1588,0.5589 -0.4507,0 -0.9013,-0.1973 -1.1588,-0.5589 -0.2576,-0.3946 -0.3541,-0.8549 -0.3541,-1.3481 0,-0.4932 0.0644,-0.9863 0.3541,-1.348 0.2575,-0.3617 0.7081,-0.5589 1.1588,-0.5589 0.4506,0 0.9013,0.1972 1.1588,0.5589 0.1287,0.1644 0.1931,0.3288 0.2575,0.5261 l 1.0622,-0.1973 c -0.0965,-0.3288 -0.2575,-0.6905 -0.4828,-0.9864 -0.4828,-0.5918 -1.2232,-0.8877 -1.9957,-0.8877 -0.8048,0 -1.5129,0.2959 -1.9958,0.8877 -0.4506,0.559 -0.6437,1.2165 -0.6437,1.9728 0,0.7233 0.1931,1.4137 0.6437,1.9727 0.4507,0.5589 1.191,0.8877 1.9958,0.8877 0.7725,0 1.5129,-0.263 1.9957,-0.8877 z m -7.5645,-3.6496 v 1.1508 h 2.0602 v 1.0521 h -2.0602 v 1.1837 h 2.5108 V 91.02 h -3.5086 v -5.4908 h 3.5086 v 1.0521 z m -2.06,4.4388 H 88.349 v -3.2879 l -1.5773,3.2879 h -0.3219 l -1.5772,-3.2879 v 3.2879 h -1.0301 v -5.4908 h 1.0301 l 1.7382,3.6496 1.7382,-3.6496 h 1.0301 z M 104.669,85.5292 V 91.02 h -1.03 v -1.8412 h -2.414 V 91.02 h -1.03 v -5.4908 h 1.03 v 2.6303 h 2.414 v -2.6303 z m 1.802,4.6359 h 2.189 l 0.29,0.8549 h 1.03 l -1.642,-5.4908 h -1.512 l -1.674,5.4908 h 1.062 z m 1.095,-3.6495 0.805,2.6632 v 0.0328 h -1.61 z m 6.309,2.5974 v -3.5838 h 1.03 V 91.02 h -0.901 l -2.479,-3.5838 V 91.02 h -1.03 v -5.4908 h 0.901 z m 3.058,1.907 v -5.4908 h -1.03 V 91.02 Z m 5.794,-1.6111 c -0.097,0.2959 -0.225,0.559 -0.451,0.822 -0.482,0.6247 -1.223,0.8877 -1.995,0.8877 -0.805,0 -1.545,-0.3288 -1.996,-0.8877 -0.451,-0.559 -0.644,-1.2494 -0.644,-1.9727 0,-0.7563 0.193,-1.4138 0.644,-1.9728 0.483,-0.5918 1.191,-0.8877 1.996,-0.8877 0.772,0 1.513,0.2959 1.995,0.8877 0.226,0.2959 0.387,0.6576 0.483,0.9864 l -1.062,0.1973 c -0.064,-0.1973 -0.129,-0.3617 -0.258,-0.5261 -0.257,-0.3617 -0.708,-0.5589 -1.158,-0.5589 -0.451,0 -0.902,0.1972 -1.159,0.5589 -0.29,0.3617 -0.354,0.8548 -0.354,1.348 0,0.4932 0.096,0.9535 0.354,1.3481 0.257,0.3616 0.708,0.5589 1.159,0.5589 0.45,0 0.901,-0.1973 1.158,-0.5589 0.097,-0.1316 0.194,-0.3288 0.226,-0.4932 z" />
    <path
       style="clip-rule:evenodd;fill:#3db9d8;fill-rule:evenodd"
       id="path15"
       d="M 78.8232,79 H 66.936 C 65.8569,79 65,79.9049 65,81.0036 V 94 l 3.0833,-3.1395 h 10.7399 c 1.0791,0 1.9361,-0.8726 1.9361,-1.9714 v -7.8855 c 0,-1.0987 -0.857,-1.9713 -1.9361,-2.0036 z" />
    <path
       style="clip-rule:evenodd;fill:#ffffff;fill-rule:evenodd"
       id="path17"
       d="m 76.3401,84.3603 h 0.3582 c 0.1954,0 0.3419,-0.1989 0.2768,-0.3647 L 76.8937,83.7801 C 76.8448,83.6806 76.7472,83.6143 76.6332,83.6143 H 76.0959 L 75.7214,82.5699 C 75.5749,82.1057 75.1353,81.7907 74.6468,81.7907 H 71.13 c -0.4884,0 -0.928,0.2984 -1.0745,0.7626 l -0.3745,1.0444 h -0.5536 c -0.114,0 -0.2117,0.0664 -0.2605,0.1658 l -0.0814,0.2155 c -0.0651,0.1824 0.0651,0.3813 0.2605,0.3813 h 0.3582 l -0.2117,0.5803 c -0.0488,0.1492 -0.0814,0.315 -0.0814,0.4642 v 2.2878 c 0,0.116 0.0814,0.1989 0.1954,0.1989 h 1.156 c 0.0977,0 0.1954,-0.0829 0.1954,-0.1989 v -0.5968 h 4.4285 v 0.5968 c 0,0.116 0.0814,0.1989 0.1954,0.1989 h 1.156 c 0.0977,0 0.1954,-0.0829 0.1954,-0.1989 v -2.2878 c 0,-0.1492 -0.0326,-0.2984 -0.0814,-0.4476 z m -6.5452,0.7461 1.0583,0.3647 c 0.0977,0.0332 0.1629,0.1161 0.1466,0.2155 0,0.1327 -0.0977,0.2321 -0.228,0.2321 h -1.0583 c -0.1302,0 -0.2279,-0.0994 -0.2279,-0.2321 v -0.3647 c 0,-0.1492 0.1628,-0.2652 0.3093,-0.2155 z m 5.3892,-2.3873 c -0.0814,-0.2487 -0.3093,-0.3979 -0.5535,-0.3979 h -3.5169 c -0.2442,0 -0.4721,0.1492 -0.5535,0.3979 l -0.4559,1.2931 c 0.7489,0.1658 1.7096,0.2652 2.7679,0.2652 1.0583,0 2.0351,-0.0994 2.7678,-0.2818 z m -0.3093,2.752 1.0583,-0.3647 c 0.1465,-0.0497 0.3093,0.0663 0.3093,0.2155 v 0.3647 c 0,0.1327 -0.0977,0.2321 -0.2279,0.2321 h -1.0583 c -0.1303,0 -0.228,-0.0994 -0.228,-0.2321 0,-0.0994 0.0489,-0.1823 0.1466,-0.2155 z" />
  </g>
  <g
     style="dominant-baseline:middle;text-anchor:middle"
     dominant-baseline="middle"
     id="textYear">
    <g
       id="text20"
       style="font-weight:400;font-size:18px;font-family:'Work Sans';fill:#3db9d8"
       aria-label="2022">
      <path
         id="path52"
         style="font-weight:400;font-size:18px;font-family:'Work Sans';fill:#3db9d8"
         d="m 143.97458,90.33 q 2.466,-1.818 3.78,-2.988 1.314,-1.188 1.872,-2.142 0.576,-0.972 0.576,-2.034 0,-1.062 -0.684,-1.71 -0.684,-0.666 -1.836,-0.666 -1.206,0 -1.962,0.792 -0.738,0.792 -0.864,2.142 l -1.26,-0.756 q 0.234,-1.602 1.296,-2.556 1.08,-0.972 2.844,-0.972 1.188,0 2.088,0.468 0.918,0.468 1.404,1.314 0.486,0.846 0.486,1.944 0,1.152 -0.558,2.214 -0.54,1.062 -1.782,2.232 -1.242,1.17 -3.348,2.574 v 0.018 q 1.188,-0.054 1.782,-0.054 h 4.158 v 1.35 h -7.992 z" />
      <path
         id="path54"
         style="font-weight:400;font-size:18px;font-family:'Work Sans';fill:#3db9d8"
         d="m 158.7523,91.68 q -2.16,0 -3.294,-1.566 -1.134,-1.566 -1.134,-4.554 0,-2.988 1.134,-4.554 1.134,-1.566 3.294,-1.566 2.16,0 3.294,1.566 1.134,1.566 1.134,4.554 0,2.988 -1.134,4.554 -1.134,1.566 -3.294,1.566 z m 0,-1.296 q 1.422,0 2.178,-1.224 0.756,-1.242 0.756,-3.6 0,-2.358 -0.756,-3.582 -0.756,-1.242 -2.178,-1.242 -1.422,0 -2.178,1.242 -0.756,1.224 -0.756,3.582 0,2.358 0.756,3.6 0.756,1.224 2.178,1.224 z" />
      <path
         id="path56"
         style="font-weight:400;font-size:18px;font-family:'Work Sans';fill:#3db9d8"
         d="m 165.66598,90.33 q 2.466,-1.818 3.78,-2.988 1.314,-1.188 1.872,-2.142 0.576,-0.972 0.576,-2.034 0,-1.062 -0.684,-1.71 -0.684,-0.666 -1.836,-0.666 -1.206,0 -1.962,0.792 -0.738,0.792 -0.864,2.142 l -1.26,-0.756 q 0.234,-1.602 1.296,-2.556 1.08,-0.972 2.844,-0.972 1.188,0 2.088,0.468 0.918,0.468 1.404,1.314 0.486,0.846 0.486,1.944 0,1.152 -0.558,2.214 -0.54,1.062 -1.782,2.232 -1.242,1.17 -3.348,2.574 v 0.018 q 1.188,-0.054 1.782,-0.054 h 4.158 v 1.35 h -7.992 z" />
      <path
         id="path58"
         style="font-weight:400;font-size:18px;font-family:'Work Sans';fill:#3db9d8"
         d="m 176.1777,90.33 q 2.466,-1.818 3.78,-2.988 1.314,-1.188 1.872,-2.142 0.576,-0.972 0.576,-2.034 0,-1.062 -0.684,-1.71 -0.684,-0.666 -1.836,-0.666 -1.206,0 -1.962,0.792 -0.738,0.792 -0.864,2.142 l -1.26,-0.756 q 0.234,-1.602 1.296,-2.556 1.08,-0.972 2.844,-0.972 1.188,0 2.088,0.468 0.918,0.468 1.404,1.314 0.486,0.846 0.486,1.944 0,1.152 -0.558,2.214 -0.54,1.062 -1.782,2.232 -1.242,1.17 -3.348,2.574 v 0.018 q 1.188,-0.054 1.782,-0.054 h 4.158 v 1.35 h -7.992 z" />
    </g>
  </g>
  <path
     id="path23"
     fill="#3DB9D8"
     d="M32.6705 82.67C33.9478 83.6804 35.225 84.6375 36.6086 85.5415C36.8747 85.701 36.9811 86.0201 36.8747 86.2859C36.7151 86.5518 36.3958 86.605 36.1297 86.4455C34.746 85.4883 33.4156 84.5312 32.1384 83.4677C30.8612 82.4042 29.6372 81.2875 28.4664 80.1176C27.136 78.7882 25.8587 77.3525 24.688 75.8636C23.0914 76.7144 21.016 76.9803 18.8873 76.4485C16.6522 75.9168 14.896 74.6405 13.9381 73.0985C15.4814 72.1945 17.6633 71.9286 19.8452 72.4604C21.1756 72.7794 22.3996 73.4175 23.3575 74.2151L23.3575 74.2151C22.9318 73.6302 22.506 73.0453 22.1335 72.4072C21.2288 71.0246 20.3774 69.5889 19.6323 68.1C19.0469 66.9301 18.5148 65.7603 18.0358 64.5904C18.0358 64.6436 18.0491 64.6968 18.0624 64.7499C18.0757 64.8031 18.089 64.8563 18.089 64.9095C16.4925 65.1222 14.6299 64.6968 12.9802 63.5801C11.3836 62.4634 10.3193 60.8681 10 59.2729C11.5965 59.007 13.4591 59.4324 15.1089 60.6554C16.1732 61.3999 16.9715 62.3039 17.5036 63.3142L17.3972 63.0483L17.2908 62.7824C17.2642 62.7293 17.2508 62.6761 17.2375 62.6229C17.2242 62.5697 17.2109 62.5166 17.1843 62.4634L16.7586 61.2935L16.3861 60.1237C16.3329 59.9642 16.2796 59.7515 16.2264 59.5387L16.0668 58.9538C15.641 57.3586 15.3217 55.7633 15.0556 54.1149C14.896 53.1577 14.7896 52.1474 14.6831 51.137C13.3527 50.6585 12.0755 49.595 11.224 48.1061C10.3193 46.5108 10.0532 44.756 10.4257 43.3203C11.8626 43.7457 13.2463 44.8092 14.1509 46.4044C14.2574 46.6703 14.3638 46.883 14.4702 47.0957V46.6703V46.3513V46.0322V45.3941L14.5235 44.1711C14.6831 41.5123 15.0024 38.8535 15.5878 36.248C14.3638 35.663 13.2463 34.4932 12.6076 32.8979C11.969 31.3026 11.969 29.6542 12.5012 28.378C13.7252 28.9629 14.8428 30.1328 15.4814 31.728C15.8539 32.632 16.0135 33.5892 15.9603 34.4932C16.0135 34.44 16.0135 34.3868 16.0135 34.3336C16.0402 34.2273 16.0668 34.1342 16.0934 34.0412C16.12 33.9481 16.1466 33.8551 16.1732 33.7487L16.3329 33.1638L16.4925 32.5789L16.5989 32.2598C16.6255 32.2066 16.6389 32.1535 16.6522 32.1003C16.6655 32.0471 16.6788 31.9939 16.7054 31.9408L17.0779 30.7709L17.1843 30.4518L17.2375 30.2923L17.2908 30.1328L17.5568 29.5479L17.8229 28.8566C16.9715 28.0058 16.3329 26.6764 16.1732 25.1875C16.0135 23.5922 16.4393 22.1565 17.2375 21.1462C18.1955 21.997 18.8873 23.3263 19.0469 24.9216V25.9851L19.5259 24.9748C19.5791 24.8153 19.6855 24.6026 19.792 24.443L20.0581 23.9113L20.3241 23.3795C20.3508 23.3263 20.3774 23.2865 20.404 23.2466C20.4306 23.2067 20.4572 23.1668 20.4838 23.1136L20.6434 22.8478L20.6967 22.5819C20.0581 21.7311 19.7388 20.5081 19.8452 19.2318C19.9516 17.9025 20.537 16.7326 21.3885 15.9882C22.0803 16.8921 22.4528 18.1152 22.3464 19.4977C22.3464 19.6572 22.3464 19.8699 22.2932 20.0295L22.4528 19.8168L22.5593 19.7104L22.6657 19.6041L23.3575 18.5937C23.5172 18.4342 23.6236 18.2747 23.73 18.1152L23.73 18.1152L24.1026 17.6366L24.3687 17.2644C24.4219 16.1477 24.9008 14.8715 25.912 13.808C26.9231 12.6913 28.2535 12.0532 29.4775 12C29.4775 13.223 28.9453 14.6056 27.9342 15.7223C26.9763 16.7858 25.7523 17.3707 24.6347 17.5302L24.3687 17.9025L24.1026 18.2215C23.9429 18.381 23.8365 18.5406 23.73 18.7001L23.4107 19.1255C23.8365 18.7533 24.3687 18.4342 24.954 18.2215C26.1248 17.7961 27.2956 17.7961 28.2003 18.2215C27.7213 19.1255 26.8699 19.9231 25.6991 20.3485C24.5815 20.7739 23.464 20.7739 22.5593 20.4017L22.3464 20.7739L22.0271 21.3057C22.0005 21.3589 21.9739 21.3987 21.9473 21.4386C21.9207 21.4785 21.8941 21.5184 21.8674 21.5716L21.7078 21.8374L21.1224 22.9009L20.9628 23.1668C20.9361 23.22 20.9095 23.2599 20.8829 23.2998C20.8563 23.3396 20.8297 23.3795 20.8031 23.4327L20.5902 23.8049C21.1224 23.2732 21.8674 22.7946 22.7721 22.4755C24.1558 21.997 25.5927 22.0501 26.7102 22.5819C26.178 23.6454 25.1137 24.6026 23.6768 25.0811C22.3464 25.5597 21.016 25.5065 19.9516 25.0811V25.1343L19.4195 26.251C19.3507 26.354 19.3042 26.457 19.2512 26.5744C19.2221 26.6387 19.1911 26.7074 19.1534 26.7827L18.9405 27.3677L18.4615 28.4844L18.0358 29.6542L17.8229 30.2391L17.7697 30.3987L17.7165 30.5582L17.6633 30.7177C18.3019 29.9733 19.1001 29.3352 20.1113 28.8566C21.6546 28.1653 23.3043 28.059 24.5815 28.5375C24.0494 29.8137 22.9318 30.9836 21.3885 31.6749C20.0048 32.313 18.4615 32.4193 17.2375 32.1003C17.2375 32.1626 17.2193 32.2066 17.2042 32.2431C17.1935 32.2689 17.1843 32.291 17.1843 32.313L17.0779 32.632L16.9182 33.217L16.7586 33.8019C16.732 33.9082 16.7054 34.0013 16.6788 34.0943C16.6522 34.1874 16.6255 34.2805 16.5989 34.3868C16.12 36.248 15.7475 38.1623 15.5346 40.0766C15.9603 39.2258 16.6522 38.375 17.5036 37.6837C18.9405 36.5138 20.6434 35.9821 22.1335 36.1416C21.9207 37.5773 21.0692 39.1194 19.6323 40.2893C18.3019 41.3528 16.7586 41.8845 15.3749 41.8314L15.2153 44.0647V45.2878V45.9259V46.2449V46.564V47.787L15.2685 49.01C15.3749 50.6053 15.5346 52.2537 15.8007 53.849V53.9553C15.9603 52.9982 16.3329 51.9347 16.9715 50.9775C18.089 49.2759 19.6323 48.1592 21.2288 47.787C21.5481 49.3823 21.1756 51.2966 20.1113 52.9982C19.1001 54.5403 17.6633 55.6038 16.2264 56.0824L16.865 58.6348L17.0247 59.2197C17.0513 59.326 17.0779 59.4191 17.1045 59.5122C17.1311 59.6052 17.1577 59.6983 17.1843 59.8046L17.5568 60.9745L17.9826 62.1443C18.0125 62.1742 18.0256 62.2208 18.0407 62.2748C18.0526 62.317 18.0657 62.3636 18.089 62.4102L18.1955 62.6761L18.4083 63.261C18.9405 64.6968 19.5791 66.0793 20.2709 67.4087C20.1113 66.3984 20.1113 65.3349 20.3241 64.2714C20.7499 62.1443 21.9207 60.3896 23.3575 59.3792C24.2622 60.8681 24.6347 62.942 24.209 65.069C23.7833 67.0365 22.7721 68.6849 21.4949 69.6952C21.7344 70.0675 21.9606 70.4264 22.1867 70.7853C22.4129 71.1443 22.6391 71.5032 22.8786 71.8754C24.1026 73.7897 25.5394 75.6509 27.0827 77.3525C26.9231 76.289 26.9763 75.0659 27.3488 73.8961C27.9342 72.0881 29.105 70.7056 30.4354 69.9611C31.1272 71.3437 31.2869 73.1516 30.7015 74.9596C30.2226 76.5017 29.3179 77.7247 28.2003 78.5223C28.4663 78.8414 28.7324 79.1072 29.0516 79.4262L29.0518 79.4263C30.1693 80.5962 31.3933 81.6597 32.6705 82.67ZM13.0236 41.0237C13.8209 40.82 14.2311 39.7323 13.9399 38.5943C13.6487 37.4562 12.7663 36.6987 11.9691 36.9024C11.1718 37.1061 10.7615 38.1938 11.0528 39.3319C11.344 40.4699 12.2264 41.2274 13.0236 41.0237ZM18.9179 46.281C19.6341 45.3867 19.7124 44.2601 19.0928 43.7647C18.4732 43.2693 17.3903 43.5926 16.6741 44.4869C15.9579 45.3812 15.8796 46.5078 16.4993 47.0032C17.1189 47.4986 18.2017 47.1753 18.9179 46.281ZM20.1518 56.4157C20.9644 56.6727 21.3212 57.8344 20.9486 59.0104C20.5761 60.1864 19.6153 60.9313 18.8027 60.6743C17.9901 60.4172 17.6333 59.2556 18.0059 58.0796C18.3784 56.9036 19.3392 56.1587 20.1518 56.4157ZM23.7833 70.4397C24.1558 69.2167 25.1137 68.4722 25.9652 68.7381C26.7634 69.004 27.1359 70.1738 26.7634 71.3969C26.3909 72.6199 25.433 73.3644 24.5815 73.0985C23.7833 72.8326 23.4107 71.6628 23.7833 70.4397ZM26.8074 80.252C26.8789 81.1301 25.9157 81.925 24.6561 82.0274C23.3964 82.1298 22.3173 81.501 22.2458 80.6229C22.1743 79.7447 23.1375 78.9498 24.3971 78.8474C25.6567 78.745 26.7359 79.3738 26.8074 80.252ZM18.8205 68.8727C19.0866 68.0327 18.3255 67.0428 17.1206 66.6617C15.9157 66.2805 14.7232 66.6525 14.4571 67.4925C14.191 68.3325 14.952 69.3224 16.1569 69.7035C17.3619 70.0846 18.5544 69.7126 18.8205 68.8727ZM13.8473 54.4528C14.7106 55.2502 14.9575 56.3861 14.3989 56.9899C13.8403 57.5938 12.6876 57.4368 11.8244 56.6394C10.9611 55.842 10.7141 54.7061 11.2727 54.1023C11.8314 53.4985 12.984 53.6554 13.8473 54.4528Z"
     clip-rule="evenodd"
     fill-rule="evenodd" />
  <path
     id="path25"
     fill="#3DB9D8"
     d="M230.039 72.3439C228.556 72.7164 227.285 73.4082 226.331 74.2596C226.629 73.8608 226.906 73.4412 227.188 73.0139L227.188 73.0138L227.188 73.0136C227.358 72.7568 227.529 72.4971 227.708 72.2375C228.609 70.8539 229.403 69.4172 230.198 67.9272C230.722 66.8743 231.219 65.8214 231.672 64.7497C231.68 64.7633 231.688 64.7767 231.697 64.7898C232.265 65.6102 234.536 65.0103 236.77 63.4499C239.003 61.8896 240.354 59.9596 239.786 59.1393C239.218 58.3189 236.947 58.9188 234.714 60.4792C233.856 61.078 233.129 61.7313 232.591 62.3553C232.601 62.3147 232.614 62.274 232.634 62.2334L233.058 61.0627L233.429 59.892C233.455 59.7856 233.482 59.6925 233.508 59.5994L233.508 59.5993C233.535 59.5062 233.561 59.4131 233.588 59.3066L233.746 58.7213C234.17 57.1249 234.541 55.4753 234.753 53.8789C234.912 52.8678 235.018 51.91 235.124 50.8989C236.448 50.42 237.772 49.3557 238.619 47.8658C239.52 46.2694 239.785 44.5133 239.414 43.0766C237.984 43.5023 236.607 44.5665 235.706 46.1629C235.547 46.429 235.441 46.6951 235.336 46.9611L235.335 46.9611V46.429V46.1097V45.7904V45.1519L235.283 43.928C235.125 41.2308 234.81 38.5863 234.234 35.9942C235.501 35.4072 236.608 34.2387 237.189 32.6468C237.825 31.0504 237.825 29.4007 237.295 28.1236C236.024 28.709 234.912 29.8797 234.329 31.4761C233.905 32.4871 233.799 33.5514 233.905 34.5092C233.879 34.456 233.866 34.3895 233.852 34.323C233.839 34.2565 233.826 34.1899 233.799 34.1367C233.773 34.0303 233.746 33.9372 233.72 33.8441L233.72 33.8439L233.72 33.8439L233.72 33.8439L233.72 33.8439L233.72 33.8438L233.72 33.8438L233.72 33.8438C233.693 33.7508 233.667 33.6577 233.641 33.5514L233.482 32.966L233.323 32.3807L233.217 32.0614C233.19 32.0082 233.177 31.955 233.164 31.9018C233.151 31.8486 233.137 31.7954 233.111 31.7421L232.74 30.5714L232.634 30.2522L232.581 30.0925L232.528 29.9329L232.316 29.3475L232.052 28.6558C232.952 27.8044 233.588 26.474 233.746 24.984C233.905 23.3876 233.482 21.9509 232.687 20.9398C231.734 21.7912 231.045 23.1216 230.886 24.718C230.833 25.1437 230.833 25.5162 230.886 25.8887L230.357 24.8244C230.319 24.749 230.282 24.6803 230.246 24.6159C230.182 24.4985 230.126 24.3954 230.092 24.2923L229.827 23.7601L229.562 23.228C229.536 23.1748 229.509 23.1349 229.483 23.095L229.483 23.0949C229.456 23.055 229.43 23.0151 229.403 22.9619L229.244 22.6959L229.191 22.5894C229.827 21.738 230.145 20.5141 230.039 19.1838C229.933 17.8003 229.297 16.6296 228.503 15.9378C227.814 16.7892 227.443 18.0663 227.549 19.4499C227.549 19.6325 227.588 19.815 227.633 19.9976L227.496 19.7691L227.39 19.6627L227.285 19.5563L226.596 18.5452L226.596 18.5452C226.49 18.3856 226.384 18.226 226.225 18.0663L225.854 17.5874L225.59 17.2681C225.537 16.0974 225.06 14.8203 224.054 13.8093C223.047 12.6918 221.723 12.0532 220.505 12C220.505 13.2239 220.981 14.6075 222.041 15.7249C222.994 16.736 224.159 17.3213 225.272 17.481L225.537 17.8535L225.907 18.3324L225.907 18.3324C226.013 18.492 226.119 18.6517 226.278 18.8113L226.49 19.1306C226.066 18.8113 225.59 18.492 225.06 18.3324C223.895 17.9067 222.729 17.9599 221.829 18.3324C222.253 19.237 223.153 20.0352 224.318 20.4609C225.431 20.8866 226.543 20.8334 227.39 20.5141L227.602 20.8866L227.92 21.4188C227.947 21.472 227.973 21.5119 228 21.5518C228.026 21.5917 228.053 21.6316 228.079 21.6848L228.238 21.9509L228.821 23.0152L228.979 23.2812C229.006 23.3344 229.032 23.3743 229.059 23.4143C229.085 23.4542 229.112 23.4941 229.138 23.5473L229.297 23.8134C228.715 23.2812 228.026 22.8023 227.179 22.5362C225.748 22.0573 224.371 22.1105 223.259 22.6427C223.789 23.7069 224.901 24.6648 226.278 25.1437C227.602 25.5694 228.926 25.5694 229.933 25.1437V25.1969L230.463 26.3144C230.516 26.3942 230.555 26.4873 230.595 26.5804C230.635 26.6736 230.674 26.7667 230.727 26.8465L230.939 27.4319L231.416 28.5493L231.84 29.72L232.052 30.3054L232.105 30.465L232.157 30.6247V30.6779C231.575 29.9329 230.78 29.3475 229.827 28.8686C228.291 28.1768 226.649 28.0704 225.378 28.5493C225.907 29.8265 227.02 30.9972 228.556 31.6889C229.986 32.3275 231.416 32.4339 232.687 32.1146C232.687 32.1367 232.696 32.1587 232.707 32.1845C232.722 32.2211 232.74 32.2651 232.74 32.3275L232.846 32.6468L233.005 33.2321L233.164 33.8175C233.19 33.9239 233.217 34.017 233.243 34.1101C233.27 34.2033 233.296 34.2964 233.323 34.4028C233.799 36.2121 234.117 38.0745 234.329 39.937C233.905 39.0856 233.27 38.2874 232.422 37.6488C230.992 36.4781 229.297 35.9992 227.814 36.1056C228.026 37.5956 228.874 39.1388 230.304 40.2563C231.628 41.3205 233.111 41.7994 234.488 41.7994L234.647 44.0344V45.2583V45.8437V46.1629V46.4822L234.594 47.7061L234.541 48.93C234.435 50.5796 234.223 52.176 234.011 53.7724C233.852 52.8146 233.482 51.8568 232.899 50.8989C231.84 49.1961 230.251 48.0786 228.662 47.7061C228.344 49.3025 228.715 51.2182 229.774 52.921C230.78 54.4642 232.157 55.5285 233.588 56.0074C233.517 56.2912 233.452 56.575 233.387 56.8588C233.258 57.4264 233.129 57.994 232.952 58.5616L232.793 59.147C232.767 59.2534 232.74 59.3465 232.714 59.4397L232.714 59.4398C232.687 59.5329 232.661 59.626 232.634 59.7323L232.263 60.903L231.84 62.0737C231.816 62.1204 231.803 62.167 231.792 62.2092C231.777 62.2632 231.763 62.3099 231.734 62.3398L231.628 62.6059L231.416 63.1912C230.886 64.5215 230.304 65.9051 229.615 67.1822C229.774 66.2244 229.721 65.2665 229.509 64.2023C229.085 62.0737 227.92 60.3177 226.49 59.3066C225.537 60.7966 225.166 62.8719 225.643 65.0005C226.066 66.9693 227.02 68.5657 228.291 69.63C227.867 70.375 227.39 71.12 226.914 71.8118C225.696 73.7274 224.265 75.5367 222.782 77.2395C222.941 76.1752 222.888 75.0578 222.517 73.8871C221.935 72.0778 220.823 70.6943 219.445 69.9493C218.757 71.3328 218.651 73.1421 219.181 74.9513C219.657 76.4945 220.558 77.7184 221.617 78.5166C221.485 78.6763 221.339 78.8226 221.193 78.9689C221.048 79.1153 220.902 79.2616 220.77 79.4213C219.604 80.5919 218.439 81.6562 217.168 82.6673C215.897 83.6783 214.625 84.6362 213.248 85.5408C212.983 85.7004 212.93 86.0729 213.089 86.2858C213.248 86.5518 213.619 86.605 213.831 86.4454C215.208 85.5408 216.532 84.5297 217.803 83.4655C219.075 82.4012 220.293 81.2837 221.458 80.113C222.782 78.7827 224.054 77.3459 225.219 75.856C226.808 76.7074 228.874 76.9734 231.045 76.4413C233.217 75.9092 234.965 74.6321 235.971 73.0889C234.329 72.0778 232.21 71.8118 230.039 72.3439ZM226.066 70.3218C226.437 71.5457 226.119 72.7164 225.272 72.9825C224.424 73.2485 223.471 72.5036 223.1 71.2797C222.729 70.0557 223.047 68.8851 223.895 68.619C224.742 68.3529 225.695 69.1511 226.066 70.3218ZM230.978 60.5923C231.787 60.335 232.142 59.1725 231.771 57.9957C231.4 56.8189 230.444 56.0734 229.635 56.3306C228.826 56.5879 228.471 57.7504 228.842 58.9272C229.213 60.104 230.169 60.8495 230.978 60.5923ZM233.104 44.4221C233.817 45.3171 233.895 46.4445 233.278 46.9402C232.661 47.436 231.583 47.1124 230.871 46.2175C230.158 45.3226 230.08 44.1952 230.697 43.6994C231.313 43.2036 232.391 43.5272 233.104 44.4221ZM227.545 80.6094C227.616 79.7307 226.657 78.9352 225.403 78.8327C224.15 78.7302 223.076 79.3595 223.004 80.2383C222.933 81.117 223.892 81.9125 225.146 82.015C226.399 82.1175 227.473 81.4882 227.545 80.6094ZM235.28 67.4035C235.545 68.2441 234.787 69.2347 233.588 69.6161C232.389 69.9975 231.202 69.6253 230.937 68.7847C230.672 67.9441 231.43 66.9535 232.629 66.5721C233.828 66.1907 235.015 66.563 235.28 67.4035ZM237.991 56.5537C238.85 55.7557 239.096 54.619 238.54 54.0147C237.984 53.4105 236.837 53.5675 235.977 54.3655C235.118 55.1635 234.872 56.3002 235.428 56.9044C235.984 57.5087 237.132 57.3516 237.991 56.5537ZM237.764 36.8529C238.557 37.0568 238.966 38.1452 238.676 39.2841C238.386 40.423 237.508 41.181 236.714 40.9772C235.921 40.7733 235.512 39.6849 235.802 38.546C236.092 37.4071 236.97 36.6491 237.764 36.8529Z"
     clip-rule="evenodd"
     fill-rule="evenodd" />
</svg>
