<svg id="Group_28" data-name="Group 28" xmlns="http://www.w3.org/2000/svg" viewBox="0 0 217.358 57.147" width="250" height="100" >
  <g id="Group_26" data-name="Group 26" transform="translate(0 0)">
    <path id="Path_91" data-name="Path 91" d="M55.281,38.662c.156-1.251-.442-3.741-4.563-3.739-2.338,0-5.043.341-5.256,3.232-.246,3.323,6.281,3.145,10.591,4.68,7.633,2.7,10.8,5.744,10.411,10.974-.782,10.582-12.655,17.072-22.448,17.077-12.629.007-19.371-4.6-18.038-14.939L39.9,55.94c-.187,2.518,1.22,4.892,5.994,4.889,2.716,0,5.375-1.02,5.589-3.912.236-3.2-3.648-2.693-9.752-4.72C36.368,50.416,30.461,48.373,31,41.052c.836-11.3,11.8-16.183,20.9-16.189,11.809-.006,18,3.5,16.986,13.792Z" transform="translate(-25.811 -24.863)" fill="#ff0001"/>
    <path id="Path_92" data-name="Path 92" d="M162.342,89.2l-11.877.007,1.162-4.311-.349.4a15.962,15.962,0,0,1-11.38,5.025c-5.525,0-10.236-2.7-9.788-8.774.2-2.762.652-6.629,5.632-24.184l12.807-.007s-4.7,19.213-4.77,20.133c-.132,1.781,1.2,2.823,2.977,2.822,5.462,0,6.41-5.957,7.691-10.008l3.194-12.952,12.771-.007Z" transform="translate(-89.636 -44.744)" fill="#ff0001"/>
    <path id="Path_93" data-name="Path 93" d="M226.456,56.309l11.724-.007-1.126,4.821s4.686-5.464,11.14-5.468c5.585,0,10.9,2.169,10.44,8.43-.106,1.412-5.6,24.062-5.6,24.062l-12.67.007s4.266-17.758,4.361-19.048a2.968,2.968,0,0,0-3.1-3.409c-3.865,0-5.322,2.267-6.3,5.582l-4.192,16.88-12.766.007Z" transform="translate(-143.674 -43.711)" fill="#ff0001"/>
    <path id="Path_94" data-name="Path 94" d="M327.216,38.22l-12.152.007L318.27,26.4l41.217-.023L356.28,38.2l-14.36.008-7.789,32-14.7.009Z" transform="translate(-202.869 -25.791)" fill="#0c2273"/>
    <path id="Path_95" data-name="Path 95" d="M419.813,78.894c-.956,2.149-5.573,10.421-19.321,10.429-11.293.006-15.573-5.539-15-13.273,1.08-14.607,14.652-20.308,22.571-20.312,7.057,0,15.094,3.7,14.355,13.7a25.065,25.065,0,0,1-1.051,5.905l-23.48.013c-.269,3.634,1,6.168,4.808,6.166a6.854,6.854,0,0,0,5.458-2.626Zm-9.166-10.244a4.026,4.026,0,0,0-3.979-5.239c-3.254,0-5.623,1.626-7.068,5.246Z" transform="translate(-245.949 -43.763)" fill="#0c2273"/>
    <path id="Path_96" data-name="Path 96" d="M486.486,26.327l12.152-.007-4.411,21.3h.123L504,38.285l14.547-.009L503.3,51.112l8.79,19.022-15.29.009-3.444-11.537-2.942,2.456-2.576,9.085-12.152.007Z" transform="translate(-301.188 -25.755)" fill="#0c2273"/>
    <g id="Group_25" data-name="Group 25" transform="translate(199.722 0.657)">
      <path id="Path_97" data-name="Path 97" d="M544.31,26.557a3.5,3.5,0,1,1-3.588,3.49A3.468,3.468,0,0,1,544.31,26.557Zm0,6.246a2.751,2.751,0,1,0-2.638-2.757A2.656,2.656,0,0,0,544.314,32.8Zm-1.4-4.722H544.4c.981,0,1.533.308,1.534,1.16a.976.976,0,0,1-1.029,1.047L545.951,32h-.813l-.955-1.674H543.7V32h-.776Zm.777,1.637h.691c.441,0,.768-.067.767-.544,0-.42-.449-.486-.8-.486H543.7Z" transform="translate(-540.722 -26.557)" fill="#0c2273"/>
    </g>
  </g>
  <g id="Group_27" data-name="Group 27" transform="translate(70.82 49.181)">
    <path id="Path_98" data-name="Path 98" d="M208.4,152.084h3.031a3.828,3.828,0,0,1,1.213.181,2.583,2.583,0,0,1,.923.521,2.3,2.3,0,0,1,.582.813,2.637,2.637,0,0,1,.2,1.054v.022a2.535,2.535,0,0,1-.241,1.136,2.36,2.36,0,0,1-.659.818,2.929,2.929,0,0,1-.977.5,4.08,4.08,0,0,1-1.2.171h-1.527v2.471H208.4Zm2.923,4.008a1.794,1.794,0,0,0,1.213-.385,1.247,1.247,0,0,0,.444-.989V154.7a1.216,1.216,0,0,0-.45-1.027,1.934,1.934,0,0,0-1.208-.345h-1.571v2.768Z" transform="translate(-208.395 -151.919)" fill="#0c2273"/>
    <path id="Path_99" data-name="Path 99" d="M227.015,151.935h1.252l3.385,7.741h-1.428l-.78-1.856h-3.635l-.79,1.856h-1.384Zm1.934,4.678-1.33-3.075-1.317,3.076Z" transform="translate(-217.724 -151.828)" fill="#0c2273"/>
    <path id="Path_100" data-name="Path 100" d="M247.893,152.071h1.351l0,7.688H247.9Z" transform="translate(-232.573 -151.911)" fill="#0c2273"/>
    <path id="Path_101" data-name="Path 101" d="M256.67,152.065h1.252l4.12,5.314,0-5.315h1.329l0,7.688h-1.131L258,154.284l0,5.469h-1.329Z" transform="translate(-237.945 -151.906)" fill="#0c2273"/>
    <path id="Path_102" data-name="Path 102" d="M280.061,153.3h-2.438v-1.241l6.227,0V153.3h-2.438l0,6.447h-1.351Z" transform="translate(-250.77 -151.903)" fill="#0c2273"/>
    <path id="Path_103" data-name="Path 103" d="M305.88,152.051h3.031a3.819,3.819,0,0,1,1.214.181,2.577,2.577,0,0,1,.923.521,2.3,2.3,0,0,1,.582.813,2.634,2.634,0,0,1,.2,1.054v.022a2.536,2.536,0,0,1-.241,1.137,2.363,2.363,0,0,1-.659.818,2.94,2.94,0,0,1-.977.5,4.093,4.093,0,0,1-1.2.171h-1.527v2.471h-1.351Zm2.923,4.008a1.793,1.793,0,0,0,1.213-.385,1.247,1.247,0,0,0,.445-.988v-.022a1.215,1.215,0,0,0-.451-1.027,1.935,1.935,0,0,0-1.208-.346h-1.57v2.768Z" transform="translate(-268.068 -151.898)" fill="#0c2273"/>
    <path id="Path_104" data-name="Path 104" d="M324.793,152.044h3.427a3.76,3.76,0,0,1,1.285.2,2.586,2.586,0,0,1,.934.565,2.219,2.219,0,0,1,.472.735,2.483,2.483,0,0,1,.165.922v.022a2.208,2.208,0,0,1-.51,1.52,2.71,2.71,0,0,1-1.323.808l2.076,2.911h-1.592l-1.89-2.679h-1.692v2.68H324.8Zm3.329,3.8a1.793,1.793,0,0,0,1.153-.344,1.129,1.129,0,0,0,.428-.931v-.022a1.117,1.117,0,0,0-.418-.942,1.888,1.888,0,0,0-1.175-.321h-1.966v2.559Z" transform="translate(-279.645 -151.894)" fill="#0c2273"/>
    <path id="Path_105" data-name="Path 105" d="M348.4,159.647a4.112,4.112,0,0,1-1.625-.312,3.829,3.829,0,0,1-2.087-2.108,3.985,3.985,0,0,1-.3-1.532v-.022a3.985,3.985,0,0,1,.3-1.532,3.875,3.875,0,0,1,.834-1.263,4,4,0,0,1,2.9-1.181,4.119,4.119,0,0,1,1.626.312,3.864,3.864,0,0,1,1.263.851,3.907,3.907,0,0,1,.824,1.257,3.984,3.984,0,0,1,.3,1.532v.022a3.977,3.977,0,0,1-.3,1.532,3.878,3.878,0,0,1-.834,1.263,4,4,0,0,1-2.9,1.181Zm.022-1.241a2.542,2.542,0,0,0,1.049-.214,2.482,2.482,0,0,0,.818-.583,2.7,2.7,0,0,0,.533-.862,2.892,2.892,0,0,0,.192-1.054v-.022a2.937,2.937,0,0,0-.192-1.06,2.571,2.571,0,0,0-1.368-1.455,2.654,2.654,0,0,0-2.1,0,2.477,2.477,0,0,0-.818.582,2.689,2.689,0,0,0-.533.862,2.885,2.885,0,0,0-.192,1.054v.022a2.936,2.936,0,0,0,.192,1.06,2.574,2.574,0,0,0,1.368,1.455A2.519,2.519,0,0,0,348.421,158.406Z" transform="translate(-291.64 -151.682)" fill="#0c2273"/>
    <path id="Path_106" data-name="Path 106" d="M369.278,153.268h-2.438v-1.241l6.227,0v1.241h-2.438l0,6.447H369.28Z" transform="translate(-305.382 -151.884)" fill="#0c2273"/>
    <path id="Path_107" data-name="Path 107" d="M386.6,152.022l5.7,0v1.208h-4.349v2h3.855v1.208l-3.855,0V158.5l4.4,0v1.208l-5.755,0Z" transform="translate(-317.479 -151.88)" fill="#0c2273"/>
    <path id="Path_108" data-name="Path 108" d="M408.609,159.627a3.921,3.921,0,0,1-1.554-.307,3.815,3.815,0,0,1-1.242-.84,3.868,3.868,0,0,1-.818-1.257,4.046,4.046,0,0,1-.3-1.548v-.022a4.07,4.07,0,0,1,.291-1.543,3.894,3.894,0,0,1,.818-1.263,3.833,3.833,0,0,1,1.258-.857,4,4,0,0,1,1.6-.313,4.829,4.829,0,0,1,.961.087,3.93,3.93,0,0,1,.8.247,3.731,3.731,0,0,1,.67.379,5.227,5.227,0,0,1,.582.483l-.867,1a4.33,4.33,0,0,0-.978-.692,2.547,2.547,0,0,0-1.175-.263,2.4,2.4,0,0,0-1.015.214,2.451,2.451,0,0,0-.8.582,2.736,2.736,0,0,0-.527.862,2.88,2.88,0,0,0-.192,1.055v.022a2.922,2.922,0,0,0,.192,1.06,2.786,2.786,0,0,0,.528.873,2.409,2.409,0,0,0,1.818.8,2.758,2.758,0,0,0,.648-.071,2.825,2.825,0,0,0,.56-.2,2.978,2.978,0,0,0,.51-.313,5.649,5.649,0,0,0,.489-.417l.868.878a5.941,5.941,0,0,1-.621.56,3.93,3.93,0,0,1-.7.434,3.511,3.511,0,0,1-.818.275A4.782,4.782,0,0,1,408.609,159.627Z" transform="translate(-328.556 -151.669)" fill="#0c2273"/>
    <path id="Path_109" data-name="Path 109" d="M427.491,153.248h-2.438v-1.241l6.227,0v1.241h-2.438l0,6.447h-1.351Z" transform="translate(-341.016 -151.871)" fill="#0c2273"/>
    <path id="Path_110" data-name="Path 110" d="M445.014,152h1.351l0,7.688h-1.351Z" transform="translate(-353.235 -151.87)" fill="#0c2273"/>
    <path id="Path_111" data-name="Path 111" d="M456.926,159.61a4.112,4.112,0,0,1-1.625-.312,3.828,3.828,0,0,1-2.087-2.108,3.981,3.981,0,0,1-.3-1.532v-.022a3.985,3.985,0,0,1,.3-1.532,3.882,3.882,0,0,1,.834-1.263,4,4,0,0,1,2.9-1.181,4.112,4.112,0,0,1,1.626.312,3.83,3.83,0,0,1,2.088,2.108,3.977,3.977,0,0,1,.3,1.532v.022a3.977,3.977,0,0,1-.3,1.532,3.878,3.878,0,0,1-.834,1.263,4,4,0,0,1-2.9,1.181Zm.022-1.241a2.541,2.541,0,0,0,1.049-.214,2.488,2.488,0,0,0,.818-.583,2.692,2.692,0,0,0,.533-.862,2.891,2.891,0,0,0,.192-1.054v-.022a2.938,2.938,0,0,0-.192-1.06,2.633,2.633,0,0,0-.539-.867,2.6,2.6,0,0,0-.829-.587,2.654,2.654,0,0,0-2.1,0,2.481,2.481,0,0,0-.818.582,2.678,2.678,0,0,0-.532.862,2.878,2.878,0,0,0-.192,1.054v.022a2.936,2.936,0,0,0,.192,1.06,2.623,2.623,0,0,0,.539.867,2.594,2.594,0,0,0,.829.587A2.513,2.513,0,0,0,456.948,158.369Z" transform="translate(-358.072 -151.659)" fill="#0c2273"/>
    <path id="Path_112" data-name="Path 112" d="M477.858,151.99h1.252l4.12,5.314,0-5.315h1.329l0,7.688h-1.131l-4.241-5.468,0,5.469H477.86Z" transform="translate(-373.339 -151.86)" fill="#0c2273"/>
    <path id="Path_113" data-name="Path 113" d="M508.72,151.98l5.722,0v1.241l-4.371,0V155.3h3.877v1.241h-3.877v3.13h-1.351Z" transform="translate(-392.231 -151.854)" fill="#0c2273"/>
    <path id="Path_114" data-name="Path 114" d="M527.492,151.976h1.351l0,7.687h-1.351Z" transform="translate(-403.721 -151.853)" fill="#0c2273"/>
    <path id="Path_115" data-name="Path 115" d="M536.269,151.973h1.351l0,6.447,4.042,0v1.241l-5.392,0Z" transform="translate(-409.094 -151.851)" fill="#0c2273"/>
    <path id="Path_116" data-name="Path 116" d="M553.795,151.964h1.439l2.34,3.634,2.338-3.636h1.439l0,7.688H560l0-5.513-2.426,3.625h-.044l-2.406-3.6,0,5.491H553.8Z" transform="translate(-419.822 -151.844)" fill="#0c2273"/>
  </g>
</svg>
